<svg width="102" height="103" viewBox="0 0 102 103" fill="none" xmlns="http://www.w3.org/2000/svg">
<path fill-rule="evenodd" clip-rule="evenodd" d="M3.5 0H0V3.5V67.5V71H3.5H27.5V99V102.5H31H52H52.5V102.498C81.0709 102.237 102 79.6663 102 51.5C102 23.2184 80.8732 0 52 0H3.5ZM66.6124 93.0767C62.0996 94.6493 57.1925 95.5 52 95.5H34.5V71H47H47.3455L66.6124 93.0767ZM73.2835 90.0748L55.0991 69.2385C57.1963 68.281 59.127 66.9502 60.7886 65.2886C64.4455 61.6316 66.5 56.6717 66.5 51.5C66.5 46.3283 64.4455 41.3684 60.7886 37.7114C57.1316 34.0545 52.1717 32 47 32H31H27.5V35.5V64H7V7H52C76.6927 7 95 26.7623 95 51.5C95 68.3267 86.5179 82.6553 73.2835 90.0748ZM34.5 64H47C50.3152 64 53.4946 62.683 55.8388 60.3388C58.183 57.9946 59.5 54.8152 59.5 51.5C59.5 48.1848 58.183 45.0054 55.8388 42.6612C53.4946 40.317 50.3152 39 47 39H34.5V64Z" fill="url(#paint0_linear_1008_658)"/>
<defs>
<linearGradient id="paint0_linear_1008_658" x1="51" y1="102.5" x2="51" y2="0" gradientUnits="userSpaceOnUse">
<stop stop-color="#D6098B"/>
<stop offset="1" stop-color="#14243C"/>
</linearGradient>
</defs>
</svg>
